<svg xmlns="http://www.w3.org/2000/svg" viewBox="0 0 200 200" role="img" aria-label="Logo PRIMA-AGRO">
  <defs>
    <clipPath id="pa-circle">
      <circle cx="100" cy="100" r="85"/>
    </clipPath>
  </defs>
  <g clip-path="url(#pa-circle)">
    <rect width="200" height="200" fill="#FFFFFF"/>
    <!-- Sun -->
    <circle cx="100" cy="103" r="64" fill="#FFD500"/>
    <!-- Birds -->
    <path d="M82 60 q5.5 -6.5 11 0 q5.5 -6.5 11 0" stroke="#1A1A1A" stroke-width="3" fill="none" stroke-linecap="round"/>
    <path d="M110 49 q5 -6 10 0 q5 -6 10 0" stroke="#1A1A1A" stroke-width="2.7" fill="none" stroke-linecap="round"/>
    <path d="M130 63 q4.2 -5 8.4 0 q4.2 -5 8.4 0" stroke="#1A1A1A" stroke-width="2.4" fill="none" stroke-linecap="round"/>
    <!-- Rolling fields -->
    <path d="M-15 132 C 35 96, 115 98, 215 172 L 215 215 L -15 215 Z" fill="#1B5E33" stroke="#FFFFFF" stroke-width="7"/>
    <path d="M-15 168 C 45 124, 135 128, 215 198 L 215 215 L -15 215 Z" fill="#3E8E3B" stroke="#FFFFFF" stroke-width="7"/>
    <path d="M96 215 C 118 168, 168 138, 215 130 L 215 215 Z" fill="#8AA83D" stroke="#FFFFFF" stroke-width="7"/>
    <path d="M-15 196 C 25 172, 65 168, 104 215 L -15 215 Z" fill="#67963A" stroke="#FFFFFF" stroke-width="7"/>
  </g>
  <circle cx="100" cy="100" r="85" fill="none" stroke="#1B5E33" stroke-width="10"/>
</svg>
